<svg xmlns="http://www.w3.org/2000/svg" viewBox="0 0 760 180" width="760" height="180">
  <defs>
    <linearGradient id="bgGrad" x1="0%" y1="0%" x2="100%" y2="100%">
      <stop offset="0%" style="stop-color:#0d1117"/>
      <stop offset="100%" style="stop-color:#161b22"/>
    </linearGradient>
    <linearGradient id="accent" x1="0%" y1="0%" x2="100%" y2="0%">
      <stop offset="0%" style="stop-color:#0ea5e9"/>
      <stop offset="100%" style="stop-color:#0284c7"/>
    </linearGradient>
    <filter id="glow">
      <feGaussianBlur stdDeviation="2" result="blur"/>
      <feMerge><feMergeNode in="blur"/><feMergeNode in="SourceGraphic"/></feMerge>
    </filter>
  </defs>

  <rect width="760" height="180" fill="url(#bgGrad)" rx="8"/>
  <rect x="0" y="0" width="760" height="2" fill="url(#accent)" opacity="0.7"/>
  <rect x="0" y="178" width="760" height="2" fill="url(#accent)" opacity="0.4"/>

  <!-- Shield + lightning bolt icon -->
  <g transform="translate(90, 90)" filter="url(#glow)">
    <!-- Shield outline -->
    <path d="M0,-45 L30,-32 L30,0 C30,22 18,38 0,46 C-18,38 -30,22 -30,0 L-30,-32 Z"
          fill="none" stroke="#0ea5e9" stroke-width="2.5" stroke-linejoin="round"/>
    <!-- Inner shield tick marks (tunnel/path suggestion) -->
    <path d="M-22,-22 L-14,-22 M14,-22 L22,-22"
          stroke="#0ea5e9" stroke-width="1.5" opacity="0.4" stroke-linecap="round"/>
    <path d="M-24,-10 L-16,-10 M16,-10 L24,-10"
          stroke="#0ea5e9" stroke-width="1.5" opacity="0.3" stroke-linecap="round"/>
    <!-- Lightning bolt inside shield -->
    <path d="M4,-20 L-10,4 L-2,4 L-4,22 L12,-4 L4,-4 Z"
          fill="#0ea5e9" stroke="none"/>
  </g>

  <!-- Accent divider -->
  <line x1="155" y1="40" x2="155" y2="145" stroke="#0ea5e9" stroke-width="1" opacity="0.2"/>

  <!-- Title -->
  <text x="170" y="68" font-family="'Courier New', Courier, monospace" font-size="30" font-weight="bold" fill="#0ea5e9" filter="url(#glow)">FourDollarVPN</text>

  <!-- Subtitle -->
  <text x="172" y="95" font-family="'Courier New', Courier, monospace" font-size="13" fill="#8b949e">I got 4 on it — one-command WireGuard VPN, hardened by default</text>

  <!-- Description -->
  <text x="172" y="120" font-family="'Courier New', Courier, monospace" font-size="11" fill="#484f58">DigitalOcean auto-provisioning  ·  Curve25519 + PSK  ·  UFW + fail2ban</text>

  <!-- Badges -->
  <g font-family="'Courier New', Courier, monospace" font-size="9.5" font-weight="700">
    <rect x="172" y="134" width="52" height="16" rx="3" fill="#1f2937" stroke="#374151" stroke-width="1"/>
    <text x="198" y="146" fill="#0ea5e9" text-anchor="middle">python</text>
    <rect x="230" y="134" width="68" height="16" rx="3" fill="#1f2937" stroke="#374151" stroke-width="1"/>
    <text x="264" y="146" fill="#6b7280" text-anchor="middle">WireGuard</text>
    <rect x="304" y="134" width="90" height="16" rx="3" fill="#1f2937" stroke="#374151" stroke-width="1"/>
    <text x="349" y="146" fill="#6b7280" text-anchor="middle">DigitalOcean</text>
  </g>

  <!-- Author -->
  <text x="172" y="166" font-family="'Courier New', Courier, monospace" font-size="11" fill="#484f58">SkyzFallin</text>
</svg>
